<?xml version="1.0" encoding="UTF-8"?>
<svg id="Layer_1" xmlns="http://www.w3.org/2000/svg" version="1.1" viewBox="0 0 635.23 268.66">
  <!-- Generator: Adobe Illustrator 29.7.1, SVG Export Plug-In . SVG Version: 2.1.1 Build 8)  -->
  <defs>
    <style>
      .st0 {
        fill: #fff;
      }
    </style>
  </defs>
  <path class="st0" d="M74.68,29.06c-.32-.01-2.02-2.01-2.51-.49v103.97c.49,1.52,2.23-.49,2.51-.49h47c.63,0,8.69-3.44,9.84-4.16,8.54-5.4,13.96-18.05,15.9-27.6,2.09-1.37,8.79-2.23,10.29-.26,1.03,2.75,1.31,5.56,1.52,8.48,1.23,16.72,1.15,43.32,0,60.09-.22,3.18-1.48,6.2-1.04,9.46-14.79,1.86-10.72-3.63-14.23-13.28-2.59-7.12-8.47-13.24-15.96-15.04-4.64-1.12-17.97-1.69-23.27-1.72-10.32-.06-20.88,2.71-31.02.05l.4,95.32c.45.7,5,2.83,6.09,3.16,11.46,3.52,54.82,2.19,67.19-.79,16.3-3.93,29.87-15.36,38.6-29.4,2.45-3.93,6.86-15.77,10.14-16.87,5.14-1.73,8.76,1.87,8.08,7.02l-11.49,56.58-190.57.51c-6.83-13.95,7.58-12,16.03-16.04s9.33-11.39,9.99-20.01c4.36-56.71-3.28-118.76.06-176.04-.75-9.62-2.31-18.56-11.67-23.33-3.68-1.88-13.93-3.49-15.4-4.6-2.02-1.52-1.02-8.98.17-11.38h185.22s1.64,2.36,1.64,2.36l2.05,53.05c-.02,4.3-3.91,5.14-7.51,4.44-4.01-.78-4.95-7.97-6.68-11.34-7.01-13.65-23.73-31.64-40.36-31.64-20,0-41.16.91-61,0Z"/>
  <path class="st0" d="M278.18,236.56c.49,3.93,2.83,9.45,5.97,12.03,5.43,4.48,21.37,4.91,12.37,15.3l-76.38-.48c-3.88-10.63,4.35-9.64,10.38-13.52,5.54-3.56,6.56-9.25,7.65-15.35-3.52-63.84,4.72-132.79.05-196.03-.56-7.54-1.76-11.57-8.52-15.48-4.23-2.45-10.66-2.23-10.6-8.5.03-3.03,1.3-3.37,3.85-4.19,15.16-4.92,35.24-5.26,50.87-10.23l2.32.43c.45.21,2.03,1.88,2.03,2.02v234Z"/>
  <path class="st0" d="M375.18,235.56c.59,5.05,3.16,11.58,7.65,14.35,6.33,3.91,17.31,2.59,12.21,14.01l-77.42-.79c-3.98-12.83,14.5-10.33,16.28-21.85,2.97-68.29.44-137.2,1.29-205.72-.31-2.72-1.82-7.38-3.58-9.42-4.96-5.76-16.94-4.17-14.47-14.41.65-2.67,47.59-8.51,53.67-11.63,1.27-.58,4.37,1.75,4.37,2.47v233Z"/>
  <path class="st0" d="M612.39,141.85c-.43-.61-1.99-8.11-3.02-10.46-6.12-13.92-17.12-25.92-32.94-28.06-29.31-3.96-47.36,23.32-20.15,42.15,30.04,20.79,79.77,21.15,78.94,70.04-.74,43.97-46.28,56.2-82.52,52.54-6.98-.71-35.23-6.14-39.48-10.52-3.42-3.52-1.74-16.72-1.99-22.01-.26-5.49-2.79-20.55-.12-24.79,1.28-2.04,7.65-2.42,9.59-.68,1.43,1.28,6.67,14.01,8.68,17.32,6.86,11.34,16.24,21.31,29.61,24.39,20.22,4.67,48.83-2.71,42.94-28.95-7.97-35.53-81.36-27.32-87.48-72.51-6.04-44.6,26.72-64.83,67.28-62.28,8.4.53,31.28,4.69,38.18,8.82,1.21.72,2.22,1,2.28,2.72-1.4,9.33,4.09,33.44-.19,40.81-1.71,2.94-8.05,3.68-9.6,1.48Z"/>
  <path class="st0" d="M493.04,263.92c-9-1.07-75.06,2.26-77.38-.84-1.25-1.68-1.23-6.17.05-7.97,2.22-3.14,10.02-3.66,13.48-7.55,2.54-2.85,3.7-8.21,4.03-11.97,2.91-33.77-2.18-71.74-.12-105.95-.91-3.28-1.5-6.6-3.87-9.13-5.33-5.71-24.34-6.36-11.77-16.67l53.7-13.33,1.52,1.56.52,141.48c.87,5.11,1.56,10.73,5.45,14.55,5.88,5.76,19.97,3.01,14.39,15.83Z"/>
  <path class="st0" d="M446.94,17.33c14.27-2.09,26.41,4.36,28.01,19.52,1.1,10.43-6.99,22.22-17.51,23.98-36.96,6.19-39.58-39.24-10.5-43.5Z"/>
</svg>